/* XPM */
static char *abc0fa6c59394d3cb5c1bbc0cb38ecb8Yq9yJWaey1QtrR7B[] = {
/* columns rows colors chars-per-pixel */
"64 64 254 2 ",
"   c #7A3D2A",
".  c #7B4A3C",
"X  c #79453A",
"o  c #78513D",
"O  c #7D4C44",
"+  c #764443",
"@  c #7A5244",
"#  c #7D5A51",
"$  c #7C604B",
"%  c #8E3B1F",
"&  c #94461C",
"*  c #834D3C",
"=  c #874B3A",
"-  c #944C34",
";  c #86523B",
":  c #985539",
">  c #924928",
",  c #A6583A",
"<  c #AE5936",
"1  c #AD623B",
"2  c #B4633D",
"3  c #BC693D",
"4  c #C46B3D",
"5  c #CB6B3D",
"6  c #C6663B",
"7  c #D36B3D",
"8  c #CB733E",
"9  c #D4733B",
"0  c #834B42",
"q  c #845344",
"w  c #8C5443",
"e  c #83544B",
"r  c #8B5B4C",
"t  c #895849",
"y  c #9C5B44",
"u  c #925D4B",
"i  c #955846",
"p  c #8A5C54",
"a  c #865D57",
"s  c #935D55",
"d  c #A55C44",
"f  c #A35B4A",
"g  c #A95A46",
"h  c #B75E43",
"j  c #A85D54",
"k  c #8C6355",
"l  c #8C645A",
"z  c #886758",
"x  c #946354",
"c  c #9D6454",
"v  c #93655A",
"b  c #986B5A",
"n  c #93624D",
"m  c #A36144",
"M  c #AC6243",
"N  c #A4644C",
"B  c #AC644B",
"V  c #AD6A4D",
"C  c #AA6B48",
"Z  c #B36444",
"A  c #BC6543",
"S  c #BC6B45",
"D  c #B2644C",
"F  c #BD654A",
"G  c #B46B4C",
"H  c #BC6C4C",
"J  c #B66A46",
"K  c #BD714C",
"L  c #B6724B",
"P  c #A46453",
"I  c #A46954",
"U  c #AC6B53",
"Y  c #A46C5B",
"T  c #AC6C5A",
"R  c #B36C52",
"E  c #BB6C53",
"W  c #B76A56",
"Q  c #AA725A",
"!  c #BD7353",
"~  c #B4745B",
"^  c #BC745B",
"/  c #BE7A5C",
"(  c #B67657",
")  c #A9704E",
"_  c #8A6763",
"`  c #976A64",
"'  c #997367",
"]  c #9C7973",
"[  c #B26C62",
"{  c #A47263",
"}  c #AC7464",
"|  c #A9796B",
" . c #BB7662",
".. c #B57965",
"X. c #BB7B64",
"o. c #BB766A",
"O. c #B47C6A",
"+. c #BA7B6A",
"@. c #B47563",
"#. c #A67C74",
"$. c #B77E7A",
"%. c #A76C63",
"&. c #C36443",
"*. c #C46B44",
"=. c #CB6C44",
"-. c #C46C4B",
";. c #CC6D4B",
":. c #C5664A",
">. c #D46D43",
",. c #D26D4B",
"<. c #DA6D4A",
"1. c #C67245",
"2. c #CD7244",
"3. c #C4724C",
"4. c #CC724C",
"5. c #CB7A4C",
"6. c #D47345",
"7. c #DA7444",
"8. c #D3744B",
"9. c #DA754B",
"0. c #D57B4D",
"q. c #DC7A4C",
"w. c #D87A45",
"e. c #C46D53",
"r. c #CA6E52",
"t. c #D56E53",
"y. c #C47453",
"u. c #CB7452",
"i. c #C47954",
"p. c #CC7B54",
"a. c #C4745B",
"s. c #CB755A",
"d. c #C37B5C",
"f. c #CB7B5C",
"g. c #D37553",
"h. c #DB7452",
"j. c #D37B54",
"k. c #DA7C53",
"l. c #D37C5A",
"z. c #DB7D5B",
"x. c #D5775B",
"c. c #E27B4B",
"v. c #E27C54",
"b. c #E07452",
"n. c #C47D63",
"m. c #CC7C63",
"M. c #C47E6B",
"N. c #C77866",
"B. c #D37D62",
"V. c #DA7E62",
"C. c #C47E73",
"Z. c #BC826C",
"A. c #BC8162",
"S. c #AA8479",
"D. c #BC8373",
"F. c #BC8B7C",
"G. c #B78577",
"H. c #B8927D",
"J. c #9E837C",
"K. c #DC834D",
"L. c #D5844C",
"P. c #CD825D",
"I. c #C98158",
"U. c #D48254",
"Y. c #DC8155",
"T. c #D4825C",
"R. c #DB825B",
"E. c #DD8C5C",
"W. c #D78B58",
"Q. c #D98D59",
"!. c #E4824D",
"~. c #E48353",
"^. c #E68858",
"/. c #E0905B",
"(. c #C58263",
"). c #CC8463",
"_. c #C4846C",
"`. c #CC856B",
"'. c #CC8A6D",
"]. c #C78A69",
"[. c #D38464",
"{. c #DA8463",
"}. c #D48A63",
"|. c #DC8B63",
" X c #D4856A",
".X c #DB8469",
"XX c #D38A6B",
"oX c #DC8C69",
"OX c #DF9363",
"+X c #D7916D",
"@X c #C38473",
"#X c #C48A75",
"$X c #CB8C74",
"%X c #C38C7A",
"&X c #C88879",
"*X c #D48E73",
"=X c #D78B77",
"-X c #CB927B",
";X c #D3947A",
":X c #DA957A",
">X c #D89375",
",X c #E28B68",
"<X c #E59469",
"1X c #E78C77",
"2X c #E59679",
"3X c #F5A27F",
"4X c #B98B83",
"5X c #BB9489",
"6X c #B3908B",
"7X c #C78B83",
"8X c #C89787",
"9X c #D39683",
"0X c #D89C87",
"qX c #C89B92",
"wX c #D19C95",
"eX c #D88F80",
"rX c #E49A83",
"tX c #E48C80",
"yX c #DCA48B",
"uX c #C9A696",
"iX c #D3A59B",
"pX c #D8A89A",
"aX c #DAB39D",
"sX c #CBA790",
"dX c #E8A488",
"fX c #F7AA88",
"gX c #E4AC97",
"hX c #F0B399",
"jX c #D7ABA5",
"kX c #D9B4A8",
"lX c #DDB8B4",
"zX c #CDAAA4",
"xX c #E6AEA3",
"cX c #E4B2A4",
"vX c #EBBAA4",
"bX c #E3B5AB",
"nX c #EAB5AB",
"mX c #E4BAAC",
"MX c #EBBBAC",
"NX c #EAB4A2",
"BX c #F7BAA7",
"VX c #E7BBB5",
"CX c #F5BCB3",
"ZX c #E6C3BB",
"AX c #F4C3B4",
"SX c #FDC2B6",
"DX c #FDCBBC",
"FX c #F9C6B9",
"GX c #EFC4AF",
"HX c #DEC3BC",
"JX c #E9C7C2",
"KX c #F9CCC3",
"LX c #FED5C9",
"PX c #FCDAD2",
/* pixels */
"j.j.x.z.z.x.z.z.g.x.z.{.z.x.l.`.T F.;XV y.u.*.:.-.-.F H H -.*.:.h s.E g V XXL XXf.u.g.g.8.8.8.;.8.=.u.:.y.a.D  .rXa.a.[.j.j.8.k.",
"g.z.k.k.k.h.q.k.k.k.z.{.z.z.z. XU #X:XR 3.;.*.;.;.-.:.-.-.;.*.*.h e.e.h J XXG p.p.j.h.g.g.9.8.9.8.=.4.-.e.e.Z e.2Xa.B.T.z.z.8.k.",
"q.h.k.v.q.q.q.q.9.q.q.~.v.k.~.{.C `.>XS 4.=.5 7.=.6 *.=.=.=.5 6 t.:.-.2 2 <Xp.U.8.6.<.<.7.7.>.<.7 5 >.&.;.-.1 -.,Xx.R.z.k.~.q.c.",
"q.q.h.q.q.7.9.q.9.q.q.k.k.q.k.R.L ).2XS *.6 6 =.6 &.=.-.=.=.5 6 ,.&.;.A 1 |.p.Y.0.9.9.9.7.9.7.7.>.7 9.=.8.4.A u.<Xl.R.j.>.q.c.7.",
"j.z.z.z.j.j.j.j.Y.U.l.Y.Y.j.x.T.) ].:XJ 3.4.*.=.*.-.y.y.u.3.*.=.&.F u.y.Z }.H -.g.g.g.,.,.4.4.2.2.=.4.A 3.3.Z ! 2Xm.[.l.p.R.z.q.",
"[.}.}.XX[.[.[. XXX[.[.[.[.).[.`.I %XyXC ! y.K ! ! ^ a. .d.! ! K e.W ^ W G ;Xd.).B.m.B.B.f.f.s.f.f.y.i.E ^ ^ V  .;X(.'.XXXXoX}.).",
"O...Z.O.Z.O.O.O.O...} ....~ ~ ..z 5XpXc c U U I %.%.} { Y Y I U [ [ Y s } 8X| D.o.o.o.o. .o.O.+.@.~ @.Q } O.{ G.8X..O.$.$.@X ...",
"s x x v l x v b p p r r u r n x z 5XjXx t x x s v v ` ` l x u s s s v p | F.+ X X = 0 0 0 0 O 0 * . . . q p @ v 5X` p x s v s c ",
"MXmXMXMXVXkXmXMXPXDXLXDXDXDXDXDXLXLXLXLXDXDXDXLXKXKXLXLXFXKXMXAXCXnXnXCXAXVXjXqX7XqX$.wXqXwXVXwXpXpXpXpXpXpXpXjXVXCXVXnXnXVXnXnX",
"D.Z.D.F.D.G.G.F.pX8X9X9X-X;X;X;XH.-X-X-X].].#X&X7X8X7XwX7X-X@X$X&XC.C.@X%X%X%X@X7XeXC.eX@X%XxX7X$X$X#X#X%X#X%X%XF.7X%XG.D.@X$.$.",
"G G V V U N N N rXn.I.).f.I.i.P.! / i.3.S H K y.~ ~ y X.~ R E ! e.E E R G G E ! j h g j g y Z.U ! K ! ! ! ! G R R R D D D D D D ",
"3.S S H H J Z M dXp.i.l.L.0.6.K.5.5.5.8.6.2.5.u.u.a.> [.f.3.j.8.;.8.u.u.-.S H H :.r.:.r.J , XXi.3.1.3.1.1.*.*.*.-.-.-.-.F H F :.",
"*.*.*.*.S S Z 2 3X5.5.0.q.q.9 !.6.2.9 7.9 7 6.=.u.l.% {.j.*.q.6.5 >.8.6.5.=.=.:.&.&.:.&.h - ).3.1.2.6.5.8.6.=.6.=.>.*.:.:.:.&.:.",
"4 4 A A A J Z , fXj.j.k.q.!.c.!.w.w.w.9 7.7.6.8.g.p.% [.u.*.=.5 >.=.6 4 *.=.=.*.&.&.:.:.h < XXi.1.2.2.8 2.=.=.=.=.6 &.:.&.6 A A ",
"H 3.H H H E V d 2Xm.f.l.8.k.9 7.8.8.8.6.6.8.4.;.s.m.> B.e.f.4.;.g.4.u.3.3.3.e.-.:.h :.D F - `./ 3.4.4.=.3.*.*.-.;.-.:.:.:.F F :.",
"! ! ! R ( ~ T N dX*X*X XP.}.U.l.P.T.U.U.z.z.l.m.m.M.- &X^ XXd.d.y.y.a.d./ ^ ^ ^ s.W a.W [ i &XX.(.P.d.i.a.y.y.a.y.a.^ a.W a.W W ",
"N N m m N c I I 0XU i U B N C ) ) I ) m L , G V W i w 8Xw %.P T N U P Y Y c Y %.P N N T w Y 8Xn I N N I ) I N N P I P B N f f f ",
"; * . ; ; ; w * NXD.} } I u y n z b I y U m U N P c | CXG.F.b x c I u k v p q q = =   = = b pXF.Y Q b b b n k x q q q * = * = = ",
"vXvXGXGXvXMXMXMXLXFXGXGXGXGXFXGXGXGXDXvXBXBXBXBXBXnXnXKXbXVXnXBXBXNXgXcXAXZXkXgXgXxX0XgXgXpXDXMXaXvXaXaXaXaXaXkXMXGXmXMXvXvXBXvX",
"].].Z.Z.#X#X&X$X#XZ.Z.Z.Z._.].F.| H.8X..).n.m.a. .o...} @...@...@.} } } 8XwX7X%X@X*X`.;X9X#X&XF.-X-X;XsXsX8X8X-XF.%X%X#X%X#X$X$X",
"f.f.f.f.B.B.m.m.m.B.B.m.f.f.f.m.c Q '.U d.f.s.d.E n.M. .M.n.! G K V ~ I X.-XZ.'.). Xd.[.oXXX:XrX+X-X*X$X*X*Xn.U M.N.n.m.m.m.B.B.",
"k.z.R.R.R.R.V.V.g.z.V.x.z.z.k.|.C R *X-.j.R.4.x.f.[.s.H y.y.5.8 3.H y.M ^ *Xd..XoXE.Y.U.Y.Y.T.oXOXOXOX+X2X2XP.Z [.[.[.l.{.z.V.z.",
"q.w.w.0.L.0.k.0.U.Y.0.5.q.2.5 L.S H <X5.k.c.5 q.,.8.8.g.8.9.7 6 =.4 5.2 p.<Xl.^.c.!.^.!.^.^.^./.W.Q.Q.Q.<XOXI.1 p.U.p.U.U.0.j.0.",
"w.w.K.q.Y.k.L.k.0.L.6.6.K.w.7.^.Z 2 |.4.v.c.6 q.k.9.;.k.6 7.7 5 6.6 8.2 p.<X4.q.!.!.!.!.c.^.^.E.W.OXOXOX/.Q.I.1 U.P.U.U.U.U.0.q.",
"b.b.v.v.k.9.k.z.v.z.v.,.h.v.9.,XM , XX5.j.4.&.z.u.x.y.u.j.*.7.6.*.*.y.1 f.2X3.T.Y.Y.~.Y.~./.j.,XR./.,XR.,X2Xs.< {.u.g.k.z.k.h.h.",
",X,X,X,XoX}. X X=XB..XB.V.,Xx..X( Q ;X/ [.*X).m.n.M.n.n.n.y.p.y.y.d.d.m ~ $X/ >XXXoX,X<X2X2X2XrX>X2X2X>X:X2Xm.V M. X=X1X1XB.V.1X",
"y i w w t r r t k @ r u u n ; u X r G.; X : w * e e r r w i = : : w u q | 4Xx b u y y y y u u u x c b b x b k r | x q q i u w w ",
"{ ` b ` ' ' ' ' ' z b ` b { b b ' 4XpXS.{ %.| | #.] #.$.| | c Q } } G.G.jXkX4X| G.O.| } | ' #.' b b v z k z ' #.qXS.v l ` { { b ",
"SXSXSXSXDXDXDXKXPXAXDXDXFXSXSXSXGXkXDXvXGXAXAXnXVXCXZXLXmXNXyXgXhXNXnXNXxXbXjXjXNXgXNXxXnXjXKXVXGXMXMXNXxXpXcXCXCXCXKXFXSXCXCXSX",
" . . .......O.O.NXF.#X$X_.@XM._.A.A.A.( ].A.Z.Z.$.4X| qXZ...Q / a.! ( U P Y T Q I P T Y { x 8XG.Q ~  . .~ T T T P [ N.N.^ N.a.a.",
"y.y.y.d.n./ ( ) hXI.].].d.P.f.i.I.I.}.I.U.S I.).! _.: '.I.i.I.1.4.4 3 K ! ^ a.J K J K J G - ;XX.J K y.3.y.y.! H B.f.y.-.3.l.x.t.",
"j.4.5.u.p.i.L 1 fXI.P.+Xl.R.R.j.I.L.L.8 U.0.W.5.P.XX> ).d.3.U.4 8 5 5 5.1.3 3.S *.3 3.A J > :Xd.p.0.5.1.1.1.3.A :.g.k.0.8.8.q.9.",
";.9.j.4.p.p.3.M fXP.T.|.{.R.k.~.Y.w.5.6.q.U.I.W.).A.- *X! -.u.9.>.6 4 1.1.3 S 1.:.h :.F D > dX! 5.5.=.;.;.;.;.:.>.g.k.h.9.9.9.8.",
"=.9.g.g.p.p.K 1 fXP.f.l.l.j.j./.k.Y.0.8.W.U.I.).(.A.: $Xd.f.j.4.2.8 4 2.8 S *.4.t.:.r.:.Z % ;XL S =.=.=.,.8.h.g.=.,.h.8.8.9.q.6.",
"6.8.g.4.u.p.K M fX}.Q.}.U.j.5.5.5.0.5.2.0.0.3.f.(.A.: n.H -.u.=.6 *.4 3 A 3 S 3.&.h :.:.D - 2Xd.p.p.u.4.*.:.&.&.;.g.8.8.8.0.0.8.",
"f.[.).).(.(./ ( gX].(.].XX>XP.P.).XX}.T.XXoX X*X*X_.T ;XX.^ i.f.i.u.i.d.i.d.a.d.N.a.a.e.R y ;XZ.(.I.d.d.n.a.n.m.m.m.m.).f.P.P.P.",
"* * X X o o @ @ sX' @ o o t ; n t k r q w i w s O + O S.' . X . * * . O @ 0 . X + 0 X + O + #.' e e @ e e @ e e O . . . * * * * ",
"F.F.F.F.H.5XsXuXDXuXH.S.S.S.S.{ ] S.S.b ` %.%.%.4X#.6XbXpXF.Z.F.F.4X4X4X5X5X6XG.$.$.$.7X7XqXVXVXuXuXqXqX5X4X4X5X5X4X4XF.8X5X8X8X",
":X;X:X:XyXyXyXyXgX-XyXyXdXdXdXgXsXsXyX-X=X:X=X=XtXC.eXeX;X'.*X+X-X&X%X#X8X0X9X&XeXeX=X&X@XC.$X@X-X%X-X9X9X%X9XgX0X0X9X0X0XyXyXdX",
"S S 1.3.1.L L 3 I.J i.K J K 3.I.) A.A.J :.:.&.&.e.F r.W J i.S 1 -.D , d R / a.G E a.:.r.e.E E J H Z Z J M d d R n.! H K K S J S ",
">.6.6.6.8.9.8.w.w.8.L.K.0.6.q.R.3 L }.5.2.5 >.<.>.>.,.>.2.2.8 4 &.;.u.- 2 OXi.p.4.g.;.,.=.=.=.-.&.6 =.&.*.4 < &.,X4.3.9.4.>.8.=.",
"7 7 7 >.>.9 7.7.6.w.q.q.q.q.k.^.L C i.3 8.c.<.7 <.<.,.,.2.2.9 8 4.3.4 & 1 }.S 1.8.8.,.>.,.=.=.*.8.=.>.&.:.:.< 3.R.;.;.9.9.9.b.q.",
";.;.,.,.8.8.2.4.8.8.k.k.z.z.z.{.) ) ].S -.=.7 >.;.:.-.-.-.*.1.*.-.y.y.: L +XL L y.-.-.r.-.-.H H -.h h h F F h E [.e.-.u.r.=.,.;.",
";.t.;.t.8.4.2.=.4.4.5.l.l.j.j.[.L ( >X3.3.;.;.t.;.s.e.e.y.-.3.3.2 H 3.- 1 ].L A.y.d.y.u.u.y.3.! u.:.e.-.a.H , D .Xy.e.s.s.t.8.;.",
";.3.4.4.4.2.2.4.L.0.U.Y.R.R.V.,XR V a.h 4.0.8.&.r.r.r.y.e.=.:.r.g.u.K > C }.A.I.y.y.y.u.-.y.-.-.u.r.u.-.e.J , Z [.-.H r.u.g.h.h.",
"E E ! ! y.y.3.i.K S K i.d.n.N.M.T @.`.D H H H J e.[ W ~ W W E D E M d : A.;X) Q ( R R W G R T R W g D d N j y ~ $XR U E E y.e.y.",
"p e e q q ; q t ; o o o @ q e a a ] 4Xs w w r u e a s v ` s s s s u v l S.sXz $ z k p p a a a a e O e O # # # ] S._ a p e t t 0 ",
"bXkXjXiXiXiXiXsXmXkXpXjXpXiXjXjXzXjXKXwXwXgXjXpXzXjXlXlXlXVXnXxXxXbXbXpXHXZXaXHXlXlXlXjXjXlXlXVXlXbXVXjXkXzXzXJXLXlXzXiXzXwXjXwX",
"~  . .+...@.o.O.NX$X;X`.>XXXXXXX`.C.B.N.N.B.N.M.C.$.[ xX9X-X=X=XXXoX>X>X;X-X-X-X0X0X0X-X8XZ.aX{ o.N.o.o. .o.o.o.o.o.o.o.o.o.o.o.",
"F F F R V B B B rXN.m.u.l.8.8.8.8.8.g.t.;.t.r.y.m.R - XX).}.}.j.k.k.W.Q.}.}.}.}. X X X>X$X; ].( N.s.r.e.e.y.y.e.-.H E G R D D W ",
"*.S H F H D M 1 fXf.T.u.Y.q.q.c.K.w.w.9 7.9 7.6.U.5.& i.Q./.K.!.~.~./././.OX/.OX|.{.oX2X}.> ].I.5.2.=.=.8 4 6 4 *.1.4 3 4 S S A ",
"-.*.S H 3.G D g 2Xf.x.5.z.9.q.6.8 8 9 9 9 9 9 8 1.5.& 5.L.L.8 K.!.!.K.K.L.Q.Q.E.E.E.E.E.W., Q.L 2.8 2.8 2.2.6.2.8 5 8 *.4 3 4 3 ",
"*.A J S J G M , dXf.[.U.E.k.q.0.j.0.8.8.8.8.8.g.y.f.- }.|.T.p./.~.^./.Q./.Q./.OX<X<X<X<X}., }.L 3.1.-.*.;.-.-.-.:.H :.h S A Z A ",
"y.K K K ! G B 1 2Xi.I.3.l.5.6.5.u.u.u.;.;.;.r.r.s.! % N.f.{.l.z.Y.Y.R.K.T.oXOX}.oX{.oX,Xm.% / ! f.u.s.r.r.y.e.e.y.e.e.e.e.E e.H ",
"1.1.S S H S J Z fXoX|.j.E.Y.Y.Y..X XV.V.v.v.V.V..XB.g 1XoXoX,X,X1X1X1X1X1X2XtXtXtX1X1XrXtXj rX'.B.x.x.x.s.s.s.s.e.a.e.e.e.:.e.:.",
", : : y : y y : $Xm m : , : , , y y d : d , : , i i = C.P f B g g g j N j P j j j [ j j [ i &Xr f g g f g f f f f f f f f f d g ",
"_ _ _ _ _ _ _ ] JXzX6X4X#.#.] ] J.J.J.] S.A.F.#.S.S.6XkXqXz o k w q r o $ $ $ o @ + # t a H.kXuXS.S.S.#.] ] _ 4X_ a l _ k k z k ",
"lXHXVXlXHXHXHXZXPXJXlXZXJXJXVXVXHXHXJXmXGXkXMXaXlXlXlXlXzX5XsXpXpXqXaXqXkXaXsXsXqX8XsX8XH.sXmXuXkXlXkXkXzXkXuXJXJXlXVXZXVXmXGXmX",
"_.(.).(.M.N.d.(. ./ d.`.`.(._._.~ A.'./ I.3.p.y.! / / ( ( ! y.E ! W  .U _.Z.A.A.B.N.N.N.R ^ (.G K i.G L Q ~ N $X@Xn.n.).P.P.f.p.",
"8.0.k.Y.j.k.Y.q.k.0.0.0.8.2.2.l.1 G T.;.5.6.9.9.=.8.g.g.j.Y.9.&.;.F r.h f.m.i.A.x.t.t.x.g.s.l.s.4.2.&.*.H 3.< [.{.p.p.j.j.q.k.6.",
"q.c.c.~.!.!.~.~.~.c.q.q.q.q.q.R.E e.1Xj.b.b.<.h.b.h.t.t.t.,.<.<.t.r.t.A z.{.z.z.h.t.<.b.h.,.,.8.9.g.,.g.r.u.h V.1XB.z.,X~.^.v.v.",
"9.q.q.9.8.9.9.q.9.w.9.q.q.q.q.j.F E 1Xg.h.b.<.<.h.t.t.t.t.,.,.t.t.;.u.2 l.T.x.g.v.h.<.h.<.8.2.8.;.;.:.u.e.y.g .XV.s.x.l.h.h.b.b.",
"z.{.R.R.Y.U.z.Y.z.z.l.l.p.x.l.f.V N XX3.k.k.,.q.g.g.x.V.z.x.8.r.e.H y.M d.XXP.p.s.g.g.;.8.u.5.3.5.3.S y.! ! M '.XXn.P.Q.j.j.~.q.",
"l.l.T.T.l.l.l.l.l.U.l.f.u.s.[.XXU N +XK j.z.4.9.k.g.r.-.3.u.4.-.e.E a.m (.`.I.a.f.T.x.u.u.j.5.K 3.5.L 3.L L m '.].I.P.P.U.5.K.K."
};
